<svg width="30" height="30" viewBox="0 0 30 30" fill="none" xmlns="http://www.w3.org/2000/svg">
<path d="M10.0343 23.6308C10.0343 23.7522 9.89516 23.8493 9.71976 23.8493C9.52016 23.8675 9.38105 23.7704 9.38105 23.6308C9.38105 23.5095 9.52016 23.4124 9.69557 23.4124C9.87702 23.3942 10.0343 23.4913 10.0343 23.6308ZM8.15323 23.3577C8.11089 23.4791 8.23186 23.6187 8.41331 23.6551C8.57057 23.7158 8.75202 23.6551 8.78831 23.5337C8.8246 23.4124 8.70968 23.2728 8.52823 23.2182C8.37097 23.1757 8.19557 23.2364 8.15323 23.3577ZM10.8266 23.2546C10.6512 23.2971 10.5302 23.4124 10.5484 23.5519C10.5665 23.6733 10.7238 23.7522 10.9052 23.7097C11.0806 23.6672 11.2016 23.5519 11.1835 23.4306C11.1653 23.3153 11.002 23.2364 10.8266 23.2546ZM14.8065 0C6.41734 0 0 6.39015 0 14.8072C0 21.5372 4.22177 27.2962 10.252 29.3231C11.0262 29.4627 11.2984 28.9833 11.2984 28.5888C11.2984 28.2126 11.2802 26.1371 11.2802 24.8627C11.2802 24.8627 7.04637 25.773 6.15726 23.0543C6.15726 23.0543 5.46774 21.2884 4.47581 20.8332C4.47581 20.8332 3.09073 19.8805 4.57258 19.8987C4.57258 19.8987 6.07863 20.0201 6.90726 21.4644C8.23186 23.8068 10.4516 23.1332 11.3165 22.7327C11.4556 21.7617 11.8488 21.0881 12.2843 20.6876C8.90323 20.3113 5.49194 19.8198 5.49194 13.9819C5.49194 12.313 5.95161 11.4756 6.91935 10.4075C6.7621 10.0131 6.24798 8.3867 7.07661 6.28699C8.34073 5.89254 11.25 7.92549 11.25 7.92549C12.4597 7.58565 13.7601 7.40967 15.0484 7.40967C16.3367 7.40967 17.6371 7.58565 18.8468 7.92549C18.8468 7.92549 21.7561 5.88647 23.0202 6.28699C23.8488 8.39277 23.3347 10.0131 23.1774 10.4075C24.1452 11.4816 24.7379 12.3191 24.7379 13.9819C24.7379 19.838 21.1754 20.3053 17.7944 20.6876C18.3508 21.167 18.8226 22.0773 18.8226 23.5034C18.8226 25.5485 18.8044 28.0791 18.8044 28.5767C18.8044 28.9711 19.0827 29.4505 19.8508 29.311C25.8992 27.2962 30 21.5372 30 14.8072C30 6.39015 23.1956 0 14.8065 0ZM5.87903 20.9303C5.8004 20.991 5.81855 21.1306 5.92137 21.2459C6.01815 21.343 6.15726 21.3855 6.23589 21.3066C6.31452 21.2459 6.29637 21.1063 6.19355 20.991C6.09677 20.8939 5.95766 20.8514 5.87903 20.9303ZM5.22581 20.4388C5.18347 20.5177 5.24395 20.6148 5.36492 20.6755C5.46169 20.7361 5.58266 20.7179 5.625 20.633C5.66734 20.5541 5.60685 20.457 5.48589 20.3963C5.36492 20.3599 5.26815 20.3781 5.22581 20.4388ZM7.18548 22.5992C7.08871 22.6781 7.125 22.8601 7.26411 22.9754C7.40323 23.115 7.57863 23.1332 7.65726 23.0361C7.73589 22.9572 7.6996 22.7752 7.57863 22.6599C7.44556 22.5203 7.26411 22.5021 7.18548 22.5992ZM6.49597 21.7071C6.39919 21.7678 6.39919 21.9256 6.49597 22.0651C6.59274 22.2047 6.75605 22.2654 6.83468 22.2047C6.93145 22.1258 6.93145 21.9681 6.83468 21.8285C6.75 21.6889 6.59274 21.6282 6.49597 21.7071Z" fill="white"/>
</svg>
